<?xml version="1.0" encoding="UTF-8" standalone="no"?>
<!-- Created with Inkscape (http://www.inkscape.org/) -->

<svg
   xmlns:dc="http://purl.org/dc/elements/1.1/"
   xmlns:cc="http://creativecommons.org/ns#"
   xmlns:rdf="http://www.w3.org/1999/02/22-rdf-syntax-ns#"
   xmlns:svg="http://www.w3.org/2000/svg"
   xmlns="http://www.w3.org/2000/svg"
   xmlns:sodipodi="http://sodipodi.sourceforge.net/DTD/sodipodi-0.dtd"
   xmlns:inkscape="http://www.inkscape.org/namespaces/inkscape"
   width="73.382919mm"
   height="73.293137mm"
   viewBox="0 0 260.01822 259.70009"
   id="svg2"
   version="1.1"
   inkscape:version="0.91 r13725"
   sodipodi:docname="Extension.svg">
  <defs
     id="defs4" />
  <sodipodi:namedview
     id="base"
     pagecolor="#ffffff"
     bordercolor="#666666"
     borderopacity="1.0"
     inkscape:pageopacity="0.0"
     inkscape:pageshadow="2"
     inkscape:zoom="0.35"
     inkscape:cx="-485.99958"
     inkscape:cy="-37.228486"
     inkscape:document-units="px"
     inkscape:current-layer="layer1"
     showgrid="false"
     fit-margin-top="0"
     fit-margin-left="0"
     fit-margin-right="0"
     fit-margin-bottom="0"
     inkscape:window-width="1920"
     inkscape:window-height="1054"
     inkscape:window-x="1920"
     inkscape:window-y="0"
     inkscape:window-maximized="1" />
  <metadata
     id="metadata7">
    <rdf:RDF>
      <cc:Work
         rdf:about="">
        <dc:format>image/svg+xml</dc:format>
        <dc:type
           rdf:resource="http://purl.org/dc/dcmitype/StillImage" />
        <dc:title></dc:title>
      </cc:Work>
    </rdf:RDF>
  </metadata>
  <g
     inkscape:label="Ebene 1"
     inkscape:groupmode="layer"
     id="layer1"
     transform="translate(-199.57101,-241.14791)">
    <path
       style="fill:#000000"
       d="m 323.57143,499.83948 c -1.925,-0.71449 -28.475,-14.90465 -59,-31.53369 -58.50702,-31.87274 -61.74987,-33.99268 -63.91247,-41.7813 -0.71543,-2.57661 -1.07825,-24.85321 -1.08195,-66.43024 l -0.006,-62.55365 2.49325,-5.00329 c 1.37128,-2.75181 3.76283,-5.94194 5.31454,-7.08917 3.82806,-2.83021 118.20533,-44.30023 122.18318,-44.30023 3.35915,0 114.0588,39.77973 120.02621,43.13122 4.00817,2.25111 7.58762,7.00402 9.01009,11.96385 1.39126,4.85105 1.28518,125.23948 -0.1148,130.28151 -2.17495,7.83308 -5.28767,9.85695 -65.41247,42.53063 -60.29915,32.76843 -62.05684,33.54698 -69.5,30.78436 z m 66.5,-51.55405 49,-26.76036 0.2594,-49.79935 0.2594,-49.79934 -2.2594,0.59046 c -1.24267,0.32475 -23.6344,8.4016 -49.7594,17.94854 l -47.5,17.35807 -0.25799,58.66223 c -0.1419,32.26423 0.0831,58.63925 0.5,58.61117 0.41689,-0.0281 22.80799,-12.09322 49.75799,-26.81142 z m -6.78916,-127.24571 c 29.03404,-10.50951 53.31584,-19.39701 53.95955,-19.75001 0.64371,-0.35299 -23.31448,-9.55109 -53.24043,-20.44022 l -54.41081,-19.79843 -54.43442,19.79025 c -29.93892,10.88464 -54.29025,19.93442 -54.11405,20.11061 0.60866,0.60866 107.03302,39.0997 108.24016,39.14777 0.66597,0.0265 24.96597,-8.55047 54,-19.05997 z"
       id="path4201"
       inkscape:connector-curvature="0" />
  </g>
</svg>
